<?xml version="1.0" encoding="UTF-8" standalone="no"?>
<!DOCTYPE svg PUBLIC "-//W3C//DTD SVG 1.1//EN" "http://www.w3.org/Graphics/SVG/1.1/DTD/svg11.dtd">
<svg width="100%" height="100%" viewBox="0 0 283 258" version="1.1" xmlns="http://www.w3.org/2000/svg" xmlns:xlink="http://www.w3.org/1999/xlink" xml:space="preserve" xmlns:serif="http://www.serif.com/" style="fill-rule:evenodd;clip-rule:evenodd;stroke-linejoin:round;stroke-miterlimit:2;">
    <g transform="matrix(1,0,0,1,-464.69,-411.417)">
        <g transform="matrix(1,0,0,1,-212.951,0)">
            <g transform="matrix(0.085439,0,0,0.085439,677.64,411.412)">
                <path d="M1120.31,3010L56.125,3010C25.126,3010 0,2984.88 0,2953.87L0,450.121C0,419.125 25.126,393.999 56.125,393.999L1120.31,393.999C1151.31,393.999 1176.43,419.123 1176.43,450.121L1176.43,2953.89C1176.43,2984.88 1151.31,3010 1120.31,3010Z" style="fill:rgb(79,186,111);"/>
                <path d="M1120.31,506.239L56.125,506.239C25.126,506.239 0,481.116 0,450.118L0,56.182C0,25.183 25.126,0.06 56.125,0.06L1120.31,0.06C1151.31,0.06 1176.43,25.183 1176.43,56.182L1176.43,450.121C1176.43,481.116 1151.31,506.239 1120.31,506.239Z" style="fill:rgb(59,163,90);"/>
                <path d="M2184.5,3010L1120.31,3010C1089.32,3010 1064.19,2984.88 1064.19,2953.87L1064.19,450.121C1064.19,419.125 1089.32,393.999 1120.32,393.999L2184.5,393.999C2215.5,393.999 2240.62,419.123 2240.62,450.121L2240.62,2953.89C2240.62,2984.88 2215.5,3010 2184.5,3010Z" style="fill:rgb(255,121,0);"/>
                <path d="M2184.5,506.239L1120.31,506.239C1089.32,506.239 1064.19,481.116 1064.19,450.118L1064.19,56.182C1064.19,25.183 1089.32,0.06 1120.32,0.06L2184.5,0.06C2215.5,0.06 2240.62,25.183 2240.62,56.182L2240.62,450.121C2240.62,481.116 2215.5,506.239 2184.5,506.239Z" style="fill:rgb(255,94,0);"/>
                <path d="M3248.69,3010L2184.5,3010C2153.51,3010 2128.38,2984.88 2128.38,2953.87L2128.38,450.121C2128.38,419.125 2153.5,393.999 2184.5,393.999L3248.69,393.999C3279.68,393.999 3304.81,419.123 3304.81,450.121L3304.81,2953.89C3304.81,2984.88 3279.69,3010 3248.69,3010Z" style="fill:rgb(92,156,238);"/>
                <path d="M3248.69,506.239L2184.5,506.239C2153.51,506.239 2128.38,481.116 2128.38,450.118L2128.38,56.182C2128.38,25.183 2153.5,0.06 2184.5,0.06L3248.69,0.06C3279.68,0.06 3304.81,25.183 3304.81,56.182L3304.81,450.121C3304.81,481.116 3279.69,506.239 3248.69,506.239Z" style="fill:rgb(62,128,214);"/>
                <path d="M888.731,309.268L287.7,309.268C256.704,309.268 231.582,284.145 231.582,253.146C231.582,222.148 256.702,197.028 287.7,197.028L888.731,197.028C919.729,197.028 944.853,222.151 944.853,253.15C944.853,284.148 919.729,309.268 888.731,309.268Z" style="fill:rgb(245,245,245);"/>
                <path d="M1952.92,309.268L1351.89,309.268C1320.89,309.268 1295.77,284.145 1295.77,253.146C1295.77,222.148 1320.89,197.028 1351.89,197.028L1952.92,197.028C1983.91,197.028 2009.04,222.151 2009.04,253.15C2009.04,284.148 1983.92,309.268 1952.92,309.268Z" style="fill:rgb(245,245,245);"/>
                <path d="M3017.11,309.268L2416.08,309.268C2385.08,309.268 2359.96,284.145 2359.96,253.146C2359.96,222.148 2385.08,197.028 2416.08,197.028L3017.11,197.028C3048.1,197.028 3073.23,222.151 3073.23,253.15C3073.23,284.148 3048.1,309.268 3017.11,309.268Z" style="fill:rgb(245,245,245);"/>
                <path d="M816.457,1536.35L247.738,1536.35C216.743,1536.35 191.616,1511.23 191.616,1480.23L191.616,911.506C191.616,880.511 216.74,855.385 247.738,855.385L816.457,855.388C847.452,855.388 872.578,880.511 872.578,911.506L872.578,1480.23C872.578,1511.23 847.448,1536.35 816.457,1536.35Z" style="fill:rgb(245,245,245);"/>
                <path d="M816.457,2660.85L247.738,2660.85C216.743,2660.85 191.616,2635.73 191.616,2604.73L191.616,2036.01C191.616,2005.01 216.74,1979.89 247.738,1979.89L816.457,1979.9C847.452,1979.9 872.578,2005.02 872.578,2036.01L872.578,2604.74C872.578,2635.73 847.448,2660.85 816.457,2660.85Z" style="fill:rgb(245,245,245);"/>
                <path d="M492.11,1321.1C477.753,1321.1 463.39,1315.63 452.428,1304.67L394.157,1246.4C372.242,1224.48 372.242,1188.96 394.157,1167.04C416.078,1145.12 451.605,1145.12 473.523,1167.04L492.11,1185.63L590.668,1087.07C612.585,1065.16 648.117,1065.15 670.034,1087.07C691.952,1108.98 691.943,1144.52 670.034,1166.43L531.801,1304.66C520.833,1315.62 506.473,1321.1 492.11,1321.1Z" style="fill:rgb(79,186,111);"/>
                <path d="M492.11,2445.61C477.227,2445.61 462.952,2439.7 452.428,2429.18L394.157,2370.91C372.242,2348.99 372.242,2313.46 394.157,2291.54C416.078,2269.63 451.605,2269.63 473.523,2291.54L492.11,2310.12L590.662,2211.56C612.58,2189.65 648.11,2189.65 670.028,2211.56C691.943,2233.48 691.943,2269.02 670.028,2290.94L531.794,2429.18C521.268,2439.7 506.996,2445.61 492.11,2445.61Z" style="fill:rgb(79,186,111);"/>
                <path d="M1395.19,2106.39C1370.41,2106.39 1347.74,2089.87 1341.02,2064.78L1193.82,1515.44C1185.8,1485.51 1203.57,1454.74 1233.5,1446.72L1782.84,1299.52C1812.77,1291.52 1843.55,1309.26 1851.57,1339.21L1998.77,1888.55C2002.62,1902.93 2000.6,1918.24 1993.16,1931.13C1985.72,1944.02 1973.46,1953.42 1959.08,1957.27L1409.74,2104.47C1404.89,2105.78 1400,2106.39 1395.19,2106.39Z" style="fill:rgb(245,245,245);"/>
                <path d="M1461.41,1698.09C1436.63,1698.09 1413.96,1681.56 1407.23,1656.48C1399.21,1626.55 1416.98,1595.77 1446.92,1587.75L1668.54,1528.37C1698.42,1520.37 1729.24,1538.11 1737.26,1568.05C1745.28,1598 1727.52,1628.76 1697.58,1636.78L1475.97,1696.16C1471.11,1697.47 1466.22,1698.09 1461.41,1698.09Z" style="fill:rgb(255,121,0);"/>
                <path d="M1509.5,1877.56C1484.72,1877.56 1462.04,1861.03 1455.33,1835.95C1447.3,1806.01 1465.07,1775.24 1495.01,1767.23L1716.62,1707.84C1746.51,1699.83 1777.33,1717.59 1785.35,1747.53C1793.37,1777.46 1775.61,1808.24 1745.67,1816.26L1524.06,1875.63C1519.19,1876.94 1514.31,1877.56 1509.5,1877.56Z" style="fill:rgb(255,121,0);"/>
                <path d="M3000.95,1536.35L2432.24,1536.35C2401.24,1536.35 2376.11,1511.23 2376.11,1480.23L2376.11,911.506C2376.11,880.511 2401.23,855.385 2432.24,855.385L3000.95,855.388C3031.95,855.388 3057.08,880.511 3057.08,911.506L3057.08,1480.23C3057.08,1511.23 3031.94,1536.35 3000.95,1536.35Z" style="fill:rgb(245,245,245);"/>
                <path d="M3000.95,2660.85L2432.24,2660.85C2401.24,2660.85 2376.11,2635.73 2376.11,2604.73L2376.11,2036.01C2376.11,2005.01 2401.23,1979.89 2432.24,1979.89L3000.95,1979.9C3031.95,1979.9 3057.08,2005.02 3057.08,2036.01L3057.08,2604.74C3057.08,2635.73 3031.94,2660.85 3000.95,2660.85Z" style="fill:rgb(245,245,245);"/>
                <path d="M2676.6,1321.1C2662.25,1321.1 2647.88,1315.63 2636.92,1304.67L2578.65,1246.4C2556.74,1224.48 2556.74,1188.96 2578.65,1167.04C2600.58,1145.12 2636.1,1145.12 2658.02,1167.04L2676.6,1185.63L2775.16,1087.07C2797.08,1065.16 2832.61,1065.15 2854.53,1087.07C2876.45,1108.98 2876.44,1144.52 2854.53,1166.43L2716.3,1304.66C2705.33,1315.62 2690.97,1321.1 2676.6,1321.1Z" style="fill:rgb(92,156,238);"/>
                <path d="M2676.6,2445.61C2661.72,2445.61 2647.45,2439.7 2636.92,2429.18L2578.65,2370.91C2556.74,2348.99 2556.74,2313.46 2578.65,2291.54C2600.58,2269.63 2636.1,2269.63 2658.02,2291.54L2676.6,2310.12L2775.16,2211.56C2797.07,2189.65 2832.61,2189.65 2854.53,2211.56C2876.44,2233.48 2876.44,2269.02 2854.53,2290.94L2716.29,2429.18C2705.77,2439.7 2691.49,2445.61 2676.6,2445.61Z" style="fill:rgb(92,156,238);"/>
            </g>
        </g>
    </g>
</svg>
